<?xml version="1.0" encoding="utf-8"?>
<!-- Generator: Adobe Illustrator 22.1.0, SVG Export Plug-In . SVG Version: 6.00 Build 0)  -->
<svg version="1.1" id="Layer_1" xmlns="http://www.w3.org/2000/svg" xmlns:xlink="http://www.w3.org/1999/xlink" x="0px" y="0px"
	 viewBox="0 0 393.7 59" style="enable-background:new 0 0 393.7 59;" xml:space="preserve">
<style type="text/css">
	.st0{fill:#FFFFFF;}
	.st1{fill:#0377BE;}
</style>
<circle class="st0" cx="29.7" cy="28.3" r="20.7"/>
<g>
	<path class="st0" d="M65.2,37.7V13.5H70L79.5,30h0.1V13.5H84v24.2h-4.4l-9.9-17.2h-0.1v17.2H65.2z"/>
	<path class="st0" d="M87.9,17.1v-3.9h4.1v3.9H87.9z M92.1,37.7h-4.1V20.3h4.1V37.7z"/>
	<path class="st0" d="M105.3,37.7l-0.3-1.5c-1.7,1.1-3.2,1.8-5.4,1.8c-3.1,0-4.7-2.2-4.7-4.6c0-3.9,3.2-6,10-6.8v-1.5
		c0-1.3-1.1-2.1-2.5-2.1c-1.9,0-3,1-3.8,2.1l-2.7-2c1.1-1.8,4-3.2,6.5-3.2c4.7,0.1,6.7,1.8,6.7,7v8.2c0,0.9,0.1,1.7,0.3,2.5H105.3z
		 M104.9,29.3c-2.8,0.5-5.8,1.1-5.8,3.5c0,1.3,0.8,2,2,2c1.3,0,2.9-1.1,3.8-1.8V29.3z"/>
	<path class="st0" d="M127.1,22.8c-1,0-2,0-2.7,0.4c0.5,0.7,0.9,1.7,0.9,3.1c0,3.3-2.2,5.6-6.6,5.6c-1.8,0-3.2,0.1-3.2,1.1
		c0,2.8,11.4-1,11.4,6c0,2.5-2.5,5.2-8.1,5.2c-4.7,0-7.8-1.4-7.8-4.1c0-2.2,1.6-3.2,3.1-3.2v-0.1c-0.8-0.5-2.6-0.9-2.6-2.8
		c0-1.7,1.9-2.9,2.7-3.2c-1.4-1.2-2.6-2.5-2.6-4.6c0-3,2.3-6.1,6.9-6.1c1.5,0,3.2,0.6,4.3,1.5c0.8-1.1,2.1-1.6,4.1-1.5V22.8z
		 M115,39.3c0,1.3,1.1,1.9,4.6,1.9c2.7,0,3.6-1.3,3.6-1.9c0-0.8-1.2-2-5.3-2C115.7,37.3,115,38.6,115,39.3z M118.7,23
		c-1.8,0-3,1.3-3,2.9c0,1.6,1.2,2.9,3,2.9c1.6,0,2.8-1.3,2.8-2.9C121.5,24.3,120.3,23,118.7,23z"/>
	<path class="st0" d="M138.2,37.7l-0.3-1.5c-1.7,1.1-3.2,1.8-5.4,1.8c-3.1,0-4.7-2.2-4.7-4.6c0-3.9,3.2-6,10-6.8v-1.5
		c0-1.3-1.1-2.1-2.5-2.1c-1.9,0-3,1-3.8,2.1l-2.7-2c1.1-1.8,3.9-3.2,6.5-3.2c4.7,0.1,6.7,1.8,6.7,7v8.2c0,0.9,0.1,1.7,0.3,2.5H138.2
		z M137.7,29.3c-2.8,0.5-5.8,1.1-5.8,3.5c0,1.3,0.8,2,2,2c1.3,0,2.9-1.1,3.8-1.8V29.3z"/>
	<path class="st0" d="M145.2,37.7V20.3h3.8v3h0.1c1-2.1,2.4-3.2,4.9-3.3v4.4c-0.2,0-0.4,0-0.7,0c-2.1,0-3.9,2.4-3.9,2.8v10.6H145.2z
		"/>
	<path class="st0" d="M165,37.7l-0.3-1.5c-1.7,1.1-3.2,1.8-5.4,1.8c-3.1,0-4.7-2.2-4.7-4.6c0-3.9,3.2-6,10-6.8v-1.5
		c0-1.3-1.1-2.1-2.5-2.1c-1.9,0-3,1-3.8,2.1l-2.7-2c1.1-1.8,3.9-3.2,6.5-3.2c4.7,0.1,6.7,1.8,6.7,7v8.2c0,0.9,0.1,1.7,0.3,2.5H165z
		 M164.6,29.3c-2.8,0.5-5.8,1.1-5.8,3.5c0,1.3,0.8,2,2,2c1.3,0,2.9-1.1,3.8-1.8V29.3z"/>
</g>
<g>
	<path class="st0" d="M191.3,20.6c-0.7-2-2.1-3.5-4.4-3.5c-3.1,0-5,2.9-5,8.5c-0.1,5.7,1.6,8.5,5.1,8.5c2.1,0,3.3-0.7,4.7-3.6
		l4.3,1.1c-1.4,4.2-4.6,6.3-9,6.3c-6.2,0-9.7-4.5-9.7-12.4c0-7.9,3.5-12.4,9.7-12.4c4.6,0,7.3,2.1,8.4,6.4L191.3,20.6z"/>
	<path class="st0" d="M204.8,20c4.7,0,7.6,3.5,7.6,9c0,5.5-2.8,9-7.6,9s-7.6-3.5-7.6-9C197.3,23.5,200.1,20,204.8,20z M204.8,23.3
		c-2.3,0-3.4,1.8-3.4,5.7c0,3.9,1.1,5.7,3.4,5.7s3.4-1.8,3.4-5.7C208.3,25.1,207.1,23.3,204.8,23.3z"/>
	<path class="st0" d="M215.2,37.7V13.5h4.1v24.2H215.2z"/>
	<path class="st0" d="M222.9,37.7V13.5h4.1v24.2H222.9z"/>
	<path class="st0" d="M233.8,29.7c0.1,3.6,1.7,5,3.6,5s2.8-0.9,3.9-2.1l3,1.9c-1.6,2.5-3.9,3.5-7.3,3.5c-4.5,0-7.4-3.5-7.4-9
		c0-5.5,2.8-9,7.6-9c4.5,0,7.1,3.8,7.1,8v1.7H233.8z M240.5,26.9c-0.1-2.4-1.3-3.8-3.3-3.8c-2,0-3.3,1.4-3.3,3.8H240.5z"/>
	<path class="st0" d="M261.9,22.8c-1,0-2,0-2.7,0.4c0.5,0.7,0.9,1.7,0.9,3.1c0,3.3-2.2,5.6-6.6,5.6c-1.8,0-3.2,0.1-3.2,1.1
		c0,2.8,11.4-1,11.4,6c0,2.5-2.5,5.2-8.1,5.2c-4.7,0-7.8-1.4-7.8-4.2c0-2.2,1.6-3.2,3.1-3.2v-0.1c-0.8-0.5-2.6-0.9-2.6-2.8
		c0-1.7,1.9-2.9,2.7-3.2c-1.4-1.2-2.6-2.5-2.6-4.6c0-3,2.3-6.1,6.9-6.1c1.5,0,3.2,0.6,4.3,1.5c0.8-1.1,2.1-1.6,4.1-1.5V22.8z
		 M249.7,39.4c0,1.3,1.1,1.9,4.6,1.9c2.7,0,3.6-1.3,3.6-1.9c0-0.8-1.2-2-5.3-2C250.4,37.4,249.7,38.6,249.7,39.4z M253.5,23
		c-1.8,0-3,1.3-3,2.9c0,1.6,1.2,2.9,3,2.9c1.6,0,2.8-1.3,2.8-2.9C256.3,24.3,255,23,253.5,23z"/>
	<path class="st0" d="M266.9,29.7c0.1,3.6,1.7,5,3.6,5c1.9,0,2.8-0.9,3.9-2.1l3,1.9c-1.6,2.5-3.9,3.5-7.3,3.5c-4.5,0-7.4-3.5-7.4-9
		c0-5.5,2.8-9,7.6-9c4.6,0,7.1,3.8,7.1,8v1.7H266.9z M273.5,26.9c-0.1-2.4-1.3-3.8-3.3-3.8c-2,0-3.3,1.4-3.3,3.8H273.5z"/>
</g>
<g>
	<g>
		<path class="st1" d="M29.7,2.8C15.3,2.8,3.5,14.5,3.5,29s11.7,26.2,26.2,26.2c14.5,0,26.2-11.7,26.2-26.2S44.2,2.8,29.7,2.8z
			 M28.5,37.6h-4.1V26.4c0-2.3-0.7-3.1-2.1-3.1c-1.8,0-3.2,1-3.9,1.8v12.5h-4.1V20.3H18v1.9c1.5-1.1,3.3-2.2,5.3-2.2
			c3.5,0,5.1,2.3,5.1,5.8V37.6z M38.9,38c-4.7,0-7.5-3.5-7.5-9c0-5.5,2.8-9,7.5-9c3.3,0,5.9,1.7,6.8,4.6l-3.4,1.3
			c-0.7-1.5-1.4-2.6-3.4-2.6c-2.3,0-3.4,1.8-3.4,5.7c0,3.9,1.1,5.7,3.5,5.7c1.8,0,2.8-1.2,3.7-2.8l3.1,1.8
			C44.2,36.7,42.1,38,38.9,38z"/>
	</g>
</g>
<g>
	<path class="st0" d="M301.1,20.7c-0.7-2-2.1-3.4-4.3-3.4c-3.1,0-4.9,2.9-4.9,8.5c-0.1,5.6,1.6,8.5,5,8.5c2.1,0,3.3-0.7,4.7-3.5
		l4.2,1.1c-1.4,4.1-4.5,6.3-8.9,6.3c-6.1,0-9.6-4.5-9.6-12.3s3.5-12.3,9.6-12.3c4.6,0,7.2,2.1,8.4,6.3L301.1,20.7z"/>
	<path class="st0" d="M317.5,37.7l-0.3-1.5c-1.7,1.1-3.2,1.8-5.4,1.8c-3.1,0-4.7-2.2-4.7-4.6c0-3.9,3.2-6,9.9-6.8v-1.5
		c0-1.3-1.1-2.1-2.5-2.1c-1.9,0-3,1-3.8,2.1l-2.7-2c1.1-1.8,3.9-3.2,6.4-3.1c4.6,0.1,6.6,1.8,6.6,7v8.1c0,0.9,0.1,1.7,0.3,2.5H317.5
		z M317.1,29.4c-2.8,0.5-5.8,1.1-5.8,3.5c0,1.3,0.8,2,2,2c1.3,0,2.9-1.1,3.8-1.8V29.4z"/>
	<path class="st0" d="M324.5,37.7V20.4h3.8v1.9c1.5-1.1,3.3-2.2,5.3-2.2c3.4,0,5.1,2.3,5.1,5.8v11.8h-4.1V26.4
		c0-2.3-0.7-3.1-2.1-3.1c-1.8,0-3.2,1-3.8,1.8v12.4H324.5z"/>
	<path class="st0" d="M351,37.7l-0.3-1.5c-1.7,1.1-3.2,1.8-5.4,1.8c-3.1,0-4.7-2.2-4.7-4.6c0-3.9,3.2-6,9.9-6.8v-1.5
		c0-1.3-1.1-2.1-2.5-2.1c-1.9,0-3,1-3.8,2.1l-2.7-2c1.1-1.8,3.9-3.2,6.4-3.1c4.6,0.1,6.6,1.8,6.6,7v8.1c0,0.9,0.1,1.7,0.3,2.5H351z
		 M350.6,29.4c-2.8,0.5-5.8,1.1-5.8,3.5c0,1.3,0.8,2,2,2c1.3,0,2.9-1.1,3.8-1.8V29.4z"/>
	<path class="st0" d="M372.3,37.7h-3.5l-0.2-1.9c-1.5,1.4-2.8,2.2-4.7,2.2c-4.6,0-6.9-4-6.9-9.4c0-4.2,2.5-8.5,6.9-8.5
		c1.4,0,3.3,0.8,4.2,1.9h0.1v-8.3h4.1V37.7z M368.2,24.9c-0.8-0.8-1.9-1.5-3.2-1.5c-2.5,0-3.8,2-3.8,5.6c0,3.6,1.4,5.6,3.8,5.6
		c1.8,0,2.3-0.9,3.2-1.5V24.9z"/>
	<path class="st0" d="M384.7,37.7l-0.3-1.5c-1.7,1.1-3.2,1.8-5.4,1.8c-3.1,0-4.7-2.2-4.7-4.6c0-3.9,3.2-6,9.9-6.8v-1.5
		c0-1.3-1.1-2.1-2.5-2.1c-1.9,0-3,1-3.8,2.1l-2.7-2c1.1-1.8,3.9-3.2,6.4-3.1c4.6,0.1,6.6,1.8,6.6,7v8.1c0,0.9,0.1,1.7,0.3,2.5H384.7
		z M384.3,29.4c-2.8,0.5-5.8,1.1-5.8,3.5c0,1.3,0.8,2,2,2c1.3,0,2.9-1.1,3.8-1.8V29.4z"/>
</g>
</svg>
